G04 EAGLE Gerber RS-274X export*
G75*
%MOMM*%
%FSLAX34Y34*%
%LPD*%
%INMilling*%
%IPPOS*%
%AMOC8*
5,1,8,0,0,1.08239X$1,22.5*%
G01*
%ADD10C,6.350000*%
%ADD11R,12.000000X1.500000*%
%ADD12C,3.000000*%
%ADD13C,0.130000*%
%ADD14C,0.152400*%


D10*
X0Y0D03*
D11*
X0Y62500D03*
D12*
X-75000Y120000D03*
X75000Y120000D03*
X-120000Y-120000D03*
X120000Y-120000D03*
D13*
X-150000Y150000D02*
X-150000Y199500D01*
X150000Y199500D02*
X150000Y150000D01*
X149350Y180000D02*
X-149350Y180000D01*
X-124000Y183192D01*
X-124000Y176808D01*
X-149350Y180000D01*
X-124000Y181300D01*
X-124000Y178700D02*
X-149350Y180000D01*
X-124000Y182600D01*
X-124000Y177400D02*
X-149350Y180000D01*
X124000Y183192D02*
X149350Y180000D01*
X124000Y183192D02*
X124000Y176808D01*
X149350Y180000D01*
X124000Y181300D01*
X124000Y178700D02*
X149350Y180000D01*
X124000Y182600D01*
X124000Y177400D02*
X149350Y180000D01*
D14*
X-26632Y186507D02*
X-31148Y186507D01*
X-26632Y186507D02*
X-26499Y186509D01*
X-26367Y186515D01*
X-26235Y186525D01*
X-26103Y186538D01*
X-25971Y186556D01*
X-25841Y186577D01*
X-25710Y186602D01*
X-25581Y186631D01*
X-25453Y186664D01*
X-25325Y186700D01*
X-25199Y186740D01*
X-25074Y186784D01*
X-24950Y186832D01*
X-24828Y186883D01*
X-24707Y186938D01*
X-24588Y186996D01*
X-24470Y187058D01*
X-24355Y187123D01*
X-24241Y187192D01*
X-24130Y187263D01*
X-24021Y187339D01*
X-23914Y187417D01*
X-23809Y187498D01*
X-23707Y187583D01*
X-23607Y187670D01*
X-23510Y187760D01*
X-23415Y187853D01*
X-23324Y187949D01*
X-23235Y188047D01*
X-23149Y188148D01*
X-23066Y188252D01*
X-22986Y188358D01*
X-22910Y188466D01*
X-22836Y188576D01*
X-22766Y188689D01*
X-22699Y188803D01*
X-22636Y188920D01*
X-22576Y189038D01*
X-22519Y189158D01*
X-22466Y189280D01*
X-22417Y189403D01*
X-22371Y189527D01*
X-22329Y189653D01*
X-22291Y189780D01*
X-22256Y189908D01*
X-22225Y190037D01*
X-22198Y190166D01*
X-22175Y190297D01*
X-22155Y190428D01*
X-22140Y190560D01*
X-22128Y190692D01*
X-22120Y190824D01*
X-22116Y190957D01*
X-22116Y191089D01*
X-22120Y191222D01*
X-22128Y191354D01*
X-22140Y191486D01*
X-22155Y191618D01*
X-22175Y191749D01*
X-22198Y191880D01*
X-22225Y192009D01*
X-22256Y192138D01*
X-22291Y192266D01*
X-22329Y192393D01*
X-22371Y192519D01*
X-22417Y192643D01*
X-22466Y192766D01*
X-22519Y192888D01*
X-22576Y193008D01*
X-22636Y193126D01*
X-22699Y193243D01*
X-22766Y193357D01*
X-22836Y193470D01*
X-22910Y193580D01*
X-22986Y193688D01*
X-23066Y193794D01*
X-23149Y193898D01*
X-23235Y193999D01*
X-23324Y194097D01*
X-23415Y194193D01*
X-23510Y194286D01*
X-23607Y194376D01*
X-23707Y194463D01*
X-23809Y194548D01*
X-23914Y194629D01*
X-24021Y194707D01*
X-24130Y194783D01*
X-24241Y194854D01*
X-24355Y194923D01*
X-24470Y194988D01*
X-24588Y195050D01*
X-24707Y195108D01*
X-24828Y195163D01*
X-24950Y195214D01*
X-25074Y195262D01*
X-25199Y195306D01*
X-25325Y195346D01*
X-25453Y195382D01*
X-25581Y195415D01*
X-25710Y195444D01*
X-25841Y195469D01*
X-25971Y195490D01*
X-26103Y195508D01*
X-26235Y195521D01*
X-26367Y195531D01*
X-26499Y195537D01*
X-26632Y195539D01*
X-25729Y202763D02*
X-31148Y202763D01*
X-25729Y202763D02*
X-25610Y202761D01*
X-25490Y202755D01*
X-25371Y202745D01*
X-25253Y202731D01*
X-25134Y202714D01*
X-25017Y202692D01*
X-24900Y202667D01*
X-24785Y202637D01*
X-24670Y202604D01*
X-24556Y202567D01*
X-24444Y202527D01*
X-24333Y202482D01*
X-24224Y202434D01*
X-24116Y202383D01*
X-24010Y202328D01*
X-23906Y202269D01*
X-23804Y202207D01*
X-23704Y202142D01*
X-23606Y202073D01*
X-23510Y202001D01*
X-23417Y201926D01*
X-23327Y201849D01*
X-23239Y201768D01*
X-23154Y201684D01*
X-23072Y201597D01*
X-22992Y201508D01*
X-22916Y201416D01*
X-22842Y201322D01*
X-22772Y201225D01*
X-22705Y201127D01*
X-22641Y201026D01*
X-22581Y200922D01*
X-22524Y200817D01*
X-22471Y200710D01*
X-22421Y200602D01*
X-22375Y200492D01*
X-22333Y200380D01*
X-22294Y200267D01*
X-22259Y200153D01*
X-22228Y200038D01*
X-22200Y199921D01*
X-22177Y199804D01*
X-22157Y199687D01*
X-22141Y199568D01*
X-22129Y199449D01*
X-22121Y199330D01*
X-22117Y199211D01*
X-22117Y199091D01*
X-22121Y198972D01*
X-22129Y198853D01*
X-22141Y198734D01*
X-22157Y198615D01*
X-22177Y198498D01*
X-22200Y198381D01*
X-22228Y198264D01*
X-22259Y198149D01*
X-22294Y198035D01*
X-22333Y197922D01*
X-22375Y197810D01*
X-22421Y197700D01*
X-22471Y197592D01*
X-22524Y197485D01*
X-22581Y197380D01*
X-22641Y197276D01*
X-22705Y197175D01*
X-22772Y197077D01*
X-22842Y196980D01*
X-22916Y196886D01*
X-22992Y196794D01*
X-23072Y196705D01*
X-23154Y196618D01*
X-23239Y196534D01*
X-23327Y196453D01*
X-23417Y196376D01*
X-23510Y196301D01*
X-23606Y196229D01*
X-23704Y196160D01*
X-23804Y196095D01*
X-23906Y196033D01*
X-24010Y195974D01*
X-24116Y195919D01*
X-24224Y195868D01*
X-24333Y195820D01*
X-24444Y195775D01*
X-24556Y195735D01*
X-24670Y195698D01*
X-24785Y195665D01*
X-24900Y195635D01*
X-25017Y195610D01*
X-25134Y195588D01*
X-25253Y195571D01*
X-25371Y195557D01*
X-25490Y195547D01*
X-25610Y195541D01*
X-25729Y195539D01*
X-25729Y195538D02*
X-29342Y195538D01*
X-15517Y194635D02*
X-15513Y194955D01*
X-15502Y195274D01*
X-15483Y195594D01*
X-15456Y195912D01*
X-15422Y196230D01*
X-15380Y196547D01*
X-15330Y196863D01*
X-15273Y197178D01*
X-15209Y197491D01*
X-15137Y197803D01*
X-15058Y198113D01*
X-14971Y198420D01*
X-14877Y198726D01*
X-14776Y199029D01*
X-14667Y199330D01*
X-14552Y199628D01*
X-14429Y199924D01*
X-14299Y200216D01*
X-14162Y200505D01*
X-14162Y200506D02*
X-14123Y200614D01*
X-14080Y200721D01*
X-14034Y200826D01*
X-13983Y200930D01*
X-13930Y201032D01*
X-13873Y201132D01*
X-13812Y201230D01*
X-13748Y201325D01*
X-13681Y201419D01*
X-13610Y201510D01*
X-13537Y201599D01*
X-13460Y201685D01*
X-13381Y201768D01*
X-13299Y201849D01*
X-13214Y201927D01*
X-13126Y202001D01*
X-13036Y202073D01*
X-12944Y202141D01*
X-12849Y202207D01*
X-12752Y202269D01*
X-12653Y202327D01*
X-12551Y202383D01*
X-12449Y202434D01*
X-12344Y202482D01*
X-12238Y202527D01*
X-12130Y202568D01*
X-12021Y202605D01*
X-11911Y202638D01*
X-11799Y202667D01*
X-11687Y202693D01*
X-11574Y202715D01*
X-11460Y202732D01*
X-11346Y202746D01*
X-11231Y202756D01*
X-11116Y202762D01*
X-11001Y202764D01*
X-11001Y202763D02*
X-10886Y202761D01*
X-10771Y202755D01*
X-10656Y202745D01*
X-10542Y202731D01*
X-10428Y202714D01*
X-10315Y202692D01*
X-10203Y202666D01*
X-10091Y202637D01*
X-9981Y202604D01*
X-9872Y202567D01*
X-9764Y202526D01*
X-9658Y202481D01*
X-9554Y202433D01*
X-9451Y202382D01*
X-9350Y202326D01*
X-9250Y202268D01*
X-9153Y202206D01*
X-9059Y202141D01*
X-8966Y202072D01*
X-8876Y202000D01*
X-8788Y201926D01*
X-8703Y201848D01*
X-8621Y201767D01*
X-8542Y201684D01*
X-8465Y201598D01*
X-8392Y201509D01*
X-8321Y201418D01*
X-8254Y201324D01*
X-8190Y201229D01*
X-8129Y201131D01*
X-8072Y201031D01*
X-8019Y200929D01*
X-7968Y200825D01*
X-7922Y200720D01*
X-7879Y200613D01*
X-7840Y200505D01*
X-7841Y200505D02*
X-7704Y200216D01*
X-7574Y199924D01*
X-7451Y199628D01*
X-7336Y199330D01*
X-7227Y199029D01*
X-7126Y198726D01*
X-7032Y198420D01*
X-6945Y198113D01*
X-6866Y197803D01*
X-6794Y197491D01*
X-6730Y197178D01*
X-6673Y196863D01*
X-6623Y196547D01*
X-6581Y196230D01*
X-6547Y195912D01*
X-6520Y195594D01*
X-6501Y195274D01*
X-6490Y194955D01*
X-6486Y194635D01*
X-15516Y194635D02*
X-15512Y194315D01*
X-15501Y193996D01*
X-15482Y193676D01*
X-15455Y193358D01*
X-15421Y193040D01*
X-15379Y192723D01*
X-15329Y192407D01*
X-15272Y192092D01*
X-15208Y191779D01*
X-15136Y191467D01*
X-15057Y191157D01*
X-14970Y190850D01*
X-14876Y190544D01*
X-14775Y190241D01*
X-14666Y189940D01*
X-14551Y189642D01*
X-14428Y189346D01*
X-14298Y189054D01*
X-14161Y188765D01*
X-14162Y188765D02*
X-14123Y188657D01*
X-14080Y188550D01*
X-14034Y188445D01*
X-13983Y188341D01*
X-13930Y188239D01*
X-13873Y188139D01*
X-13812Y188041D01*
X-13748Y187946D01*
X-13681Y187852D01*
X-13610Y187761D01*
X-13537Y187672D01*
X-13460Y187586D01*
X-13381Y187503D01*
X-13299Y187422D01*
X-13214Y187344D01*
X-13126Y187270D01*
X-13036Y187198D01*
X-12943Y187129D01*
X-12849Y187064D01*
X-12752Y187002D01*
X-12652Y186944D01*
X-12551Y186888D01*
X-12449Y186837D01*
X-12344Y186789D01*
X-12238Y186744D01*
X-12130Y186703D01*
X-12021Y186666D01*
X-11911Y186633D01*
X-11799Y186604D01*
X-11687Y186578D01*
X-11574Y186556D01*
X-11460Y186539D01*
X-11346Y186525D01*
X-11231Y186515D01*
X-11116Y186509D01*
X-11001Y186507D01*
X-7841Y188765D02*
X-7704Y189054D01*
X-7574Y189346D01*
X-7451Y189642D01*
X-7336Y189940D01*
X-7227Y190241D01*
X-7126Y190544D01*
X-7032Y190850D01*
X-6945Y191157D01*
X-6866Y191467D01*
X-6794Y191779D01*
X-6730Y192092D01*
X-6673Y192407D01*
X-6623Y192723D01*
X-6581Y193040D01*
X-6547Y193358D01*
X-6520Y193676D01*
X-6501Y193996D01*
X-6490Y194315D01*
X-6486Y194635D01*
X-7840Y188765D02*
X-7879Y188657D01*
X-7922Y188550D01*
X-7968Y188445D01*
X-8019Y188341D01*
X-8072Y188239D01*
X-8130Y188139D01*
X-8190Y188041D01*
X-8254Y187946D01*
X-8321Y187852D01*
X-8392Y187761D01*
X-8465Y187672D01*
X-8542Y187586D01*
X-8621Y187503D01*
X-8703Y187422D01*
X-8788Y187344D01*
X-8876Y187270D01*
X-8966Y187198D01*
X-9059Y187129D01*
X-9153Y187064D01*
X-9250Y187002D01*
X-9350Y186944D01*
X-9451Y186888D01*
X-9554Y186837D01*
X-9658Y186789D01*
X-9764Y186744D01*
X-9872Y186703D01*
X-9981Y186666D01*
X-10091Y186633D01*
X-10203Y186604D01*
X-10315Y186578D01*
X-10428Y186556D01*
X-10542Y186539D01*
X-10656Y186525D01*
X-10771Y186515D01*
X-10886Y186509D01*
X-11001Y186507D01*
X-14614Y190119D02*
X-7389Y199151D01*
X-511Y187410D02*
X-511Y186507D01*
X-511Y187410D02*
X392Y187410D01*
X392Y186507D01*
X-511Y186507D01*
X6367Y194635D02*
X6371Y194955D01*
X6382Y195274D01*
X6401Y195594D01*
X6428Y195912D01*
X6462Y196230D01*
X6504Y196547D01*
X6554Y196863D01*
X6611Y197178D01*
X6675Y197491D01*
X6747Y197803D01*
X6826Y198113D01*
X6913Y198420D01*
X7007Y198726D01*
X7108Y199029D01*
X7217Y199330D01*
X7332Y199628D01*
X7455Y199924D01*
X7585Y200216D01*
X7722Y200505D01*
X7721Y200506D02*
X7760Y200614D01*
X7803Y200721D01*
X7849Y200826D01*
X7900Y200930D01*
X7953Y201032D01*
X8010Y201132D01*
X8071Y201230D01*
X8135Y201325D01*
X8202Y201419D01*
X8273Y201510D01*
X8346Y201599D01*
X8423Y201685D01*
X8502Y201768D01*
X8584Y201849D01*
X8669Y201927D01*
X8757Y202001D01*
X8847Y202073D01*
X8939Y202141D01*
X9034Y202207D01*
X9131Y202269D01*
X9230Y202327D01*
X9332Y202383D01*
X9434Y202434D01*
X9539Y202482D01*
X9645Y202527D01*
X9753Y202568D01*
X9862Y202605D01*
X9972Y202638D01*
X10084Y202667D01*
X10196Y202693D01*
X10309Y202715D01*
X10423Y202732D01*
X10537Y202746D01*
X10652Y202756D01*
X10767Y202762D01*
X10882Y202764D01*
X10882Y202763D02*
X10997Y202761D01*
X11112Y202755D01*
X11227Y202745D01*
X11341Y202731D01*
X11455Y202714D01*
X11568Y202692D01*
X11680Y202666D01*
X11792Y202637D01*
X11902Y202604D01*
X12011Y202567D01*
X12119Y202526D01*
X12225Y202481D01*
X12330Y202433D01*
X12432Y202382D01*
X12533Y202326D01*
X12633Y202268D01*
X12730Y202206D01*
X12824Y202141D01*
X12917Y202072D01*
X13007Y202000D01*
X13095Y201926D01*
X13180Y201848D01*
X13262Y201767D01*
X13341Y201684D01*
X13418Y201598D01*
X13491Y201509D01*
X13562Y201418D01*
X13629Y201324D01*
X13693Y201229D01*
X13754Y201131D01*
X13811Y201031D01*
X13864Y200929D01*
X13915Y200825D01*
X13961Y200720D01*
X14004Y200613D01*
X14043Y200505D01*
X14180Y200216D01*
X14310Y199924D01*
X14433Y199628D01*
X14548Y199330D01*
X14657Y199029D01*
X14758Y198726D01*
X14852Y198420D01*
X14939Y198113D01*
X15018Y197803D01*
X15090Y197491D01*
X15154Y197178D01*
X15211Y196863D01*
X15261Y196547D01*
X15303Y196230D01*
X15337Y195912D01*
X15364Y195594D01*
X15383Y195274D01*
X15394Y194955D01*
X15398Y194635D01*
X6367Y194635D02*
X6371Y194315D01*
X6382Y193996D01*
X6401Y193676D01*
X6428Y193358D01*
X6462Y193040D01*
X6504Y192723D01*
X6554Y192407D01*
X6611Y192092D01*
X6675Y191779D01*
X6747Y191467D01*
X6826Y191157D01*
X6913Y190850D01*
X7007Y190544D01*
X7108Y190241D01*
X7217Y189940D01*
X7332Y189642D01*
X7455Y189346D01*
X7585Y189054D01*
X7722Y188765D01*
X7721Y188765D02*
X7760Y188657D01*
X7803Y188550D01*
X7849Y188445D01*
X7900Y188341D01*
X7953Y188239D01*
X8010Y188139D01*
X8071Y188041D01*
X8135Y187946D01*
X8202Y187852D01*
X8273Y187761D01*
X8346Y187672D01*
X8423Y187586D01*
X8502Y187503D01*
X8584Y187422D01*
X8669Y187344D01*
X8757Y187270D01*
X8847Y187198D01*
X8940Y187129D01*
X9034Y187064D01*
X9131Y187002D01*
X9231Y186944D01*
X9332Y186888D01*
X9434Y186837D01*
X9539Y186789D01*
X9645Y186744D01*
X9753Y186703D01*
X9862Y186666D01*
X9972Y186633D01*
X10084Y186604D01*
X10196Y186578D01*
X10309Y186556D01*
X10423Y186539D01*
X10537Y186525D01*
X10652Y186515D01*
X10767Y186509D01*
X10882Y186507D01*
X14043Y188765D02*
X14180Y189054D01*
X14310Y189346D01*
X14433Y189642D01*
X14548Y189940D01*
X14657Y190241D01*
X14758Y190544D01*
X14852Y190850D01*
X14939Y191157D01*
X15018Y191467D01*
X15090Y191779D01*
X15154Y192092D01*
X15211Y192407D01*
X15261Y192723D01*
X15303Y193040D01*
X15337Y193358D01*
X15364Y193676D01*
X15383Y193996D01*
X15394Y194315D01*
X15398Y194635D01*
X14043Y188765D02*
X14004Y188657D01*
X13961Y188550D01*
X13915Y188445D01*
X13864Y188341D01*
X13811Y188239D01*
X13754Y188139D01*
X13693Y188041D01*
X13629Y187946D01*
X13562Y187852D01*
X13491Y187761D01*
X13418Y187672D01*
X13341Y187586D01*
X13262Y187503D01*
X13180Y187422D01*
X13095Y187344D01*
X13007Y187270D01*
X12917Y187198D01*
X12824Y187129D01*
X12730Y187064D01*
X12633Y187002D01*
X12533Y186944D01*
X12432Y186888D01*
X12329Y186837D01*
X12225Y186789D01*
X12119Y186744D01*
X12011Y186703D01*
X11902Y186666D01*
X11792Y186633D01*
X11680Y186604D01*
X11568Y186578D01*
X11455Y186556D01*
X11341Y186539D01*
X11227Y186525D01*
X11112Y186515D01*
X10997Y186509D01*
X10882Y186507D01*
X7270Y190119D02*
X14495Y199151D01*
X21998Y194635D02*
X22002Y194955D01*
X22013Y195274D01*
X22032Y195594D01*
X22059Y195912D01*
X22093Y196230D01*
X22135Y196547D01*
X22185Y196863D01*
X22242Y197178D01*
X22306Y197491D01*
X22378Y197803D01*
X22457Y198113D01*
X22544Y198420D01*
X22638Y198726D01*
X22739Y199029D01*
X22848Y199330D01*
X22963Y199628D01*
X23086Y199924D01*
X23216Y200216D01*
X23353Y200505D01*
X23353Y200506D02*
X23392Y200614D01*
X23435Y200721D01*
X23481Y200826D01*
X23532Y200930D01*
X23585Y201032D01*
X23642Y201132D01*
X23703Y201230D01*
X23767Y201325D01*
X23834Y201419D01*
X23905Y201510D01*
X23978Y201599D01*
X24055Y201685D01*
X24134Y201768D01*
X24216Y201849D01*
X24301Y201927D01*
X24389Y202001D01*
X24479Y202073D01*
X24571Y202141D01*
X24666Y202207D01*
X24763Y202269D01*
X24862Y202327D01*
X24964Y202383D01*
X25066Y202434D01*
X25171Y202482D01*
X25277Y202527D01*
X25385Y202568D01*
X25494Y202605D01*
X25604Y202638D01*
X25716Y202667D01*
X25828Y202693D01*
X25941Y202715D01*
X26055Y202732D01*
X26169Y202746D01*
X26284Y202756D01*
X26399Y202762D01*
X26514Y202764D01*
X26514Y202763D02*
X26629Y202761D01*
X26744Y202755D01*
X26859Y202745D01*
X26973Y202731D01*
X27087Y202714D01*
X27200Y202692D01*
X27312Y202666D01*
X27424Y202637D01*
X27534Y202604D01*
X27643Y202567D01*
X27751Y202526D01*
X27857Y202481D01*
X27962Y202433D01*
X28064Y202382D01*
X28165Y202326D01*
X28265Y202268D01*
X28362Y202206D01*
X28456Y202141D01*
X28549Y202072D01*
X28639Y202000D01*
X28727Y201926D01*
X28812Y201848D01*
X28894Y201767D01*
X28973Y201684D01*
X29050Y201598D01*
X29123Y201509D01*
X29194Y201418D01*
X29261Y201324D01*
X29325Y201229D01*
X29386Y201131D01*
X29443Y201031D01*
X29496Y200929D01*
X29547Y200825D01*
X29593Y200720D01*
X29636Y200613D01*
X29675Y200505D01*
X29674Y200505D02*
X29811Y200216D01*
X29941Y199924D01*
X30064Y199628D01*
X30179Y199330D01*
X30288Y199029D01*
X30389Y198726D01*
X30483Y198420D01*
X30570Y198113D01*
X30649Y197803D01*
X30721Y197491D01*
X30785Y197178D01*
X30842Y196863D01*
X30892Y196547D01*
X30934Y196230D01*
X30968Y195912D01*
X30995Y195594D01*
X31014Y195274D01*
X31025Y194955D01*
X31029Y194635D01*
X21998Y194635D02*
X22002Y194315D01*
X22013Y193996D01*
X22032Y193676D01*
X22059Y193358D01*
X22093Y193040D01*
X22135Y192723D01*
X22185Y192407D01*
X22242Y192092D01*
X22306Y191779D01*
X22378Y191467D01*
X22457Y191157D01*
X22544Y190850D01*
X22638Y190544D01*
X22739Y190241D01*
X22848Y189940D01*
X22963Y189642D01*
X23086Y189346D01*
X23216Y189054D01*
X23353Y188765D01*
X23392Y188657D01*
X23435Y188550D01*
X23481Y188445D01*
X23532Y188341D01*
X23585Y188239D01*
X23642Y188139D01*
X23703Y188041D01*
X23767Y187946D01*
X23834Y187852D01*
X23905Y187761D01*
X23978Y187672D01*
X24055Y187586D01*
X24134Y187503D01*
X24216Y187422D01*
X24301Y187344D01*
X24389Y187270D01*
X24479Y187198D01*
X24572Y187129D01*
X24666Y187064D01*
X24763Y187002D01*
X24863Y186944D01*
X24964Y186888D01*
X25066Y186837D01*
X25171Y186789D01*
X25277Y186744D01*
X25385Y186703D01*
X25494Y186666D01*
X25604Y186633D01*
X25716Y186604D01*
X25828Y186578D01*
X25941Y186556D01*
X26055Y186539D01*
X26169Y186525D01*
X26284Y186515D01*
X26399Y186509D01*
X26514Y186507D01*
X29674Y188765D02*
X29811Y189054D01*
X29941Y189346D01*
X30064Y189642D01*
X30179Y189940D01*
X30288Y190241D01*
X30389Y190544D01*
X30483Y190850D01*
X30570Y191157D01*
X30649Y191467D01*
X30721Y191779D01*
X30785Y192092D01*
X30842Y192407D01*
X30892Y192723D01*
X30934Y193040D01*
X30968Y193358D01*
X30995Y193676D01*
X31014Y193996D01*
X31025Y194315D01*
X31029Y194635D01*
X29675Y188765D02*
X29636Y188657D01*
X29593Y188550D01*
X29547Y188445D01*
X29496Y188341D01*
X29443Y188239D01*
X29386Y188139D01*
X29325Y188041D01*
X29261Y187946D01*
X29194Y187852D01*
X29123Y187761D01*
X29050Y187672D01*
X28973Y187586D01*
X28894Y187503D01*
X28812Y187422D01*
X28727Y187344D01*
X28639Y187270D01*
X28549Y187198D01*
X28456Y187129D01*
X28362Y187064D01*
X28265Y187002D01*
X28165Y186944D01*
X28064Y186888D01*
X27961Y186837D01*
X27857Y186789D01*
X27751Y186744D01*
X27643Y186703D01*
X27534Y186666D01*
X27424Y186633D01*
X27312Y186604D01*
X27200Y186578D01*
X27087Y186556D01*
X26973Y186539D01*
X26859Y186525D01*
X26744Y186515D01*
X26629Y186509D01*
X26514Y186507D01*
X22901Y190119D02*
X30126Y199151D01*
D13*
X-135000Y150000D02*
X-229500Y150000D01*
X-229500Y-150000D02*
X-135000Y-150000D01*
X-210000Y-149350D02*
X-210000Y149350D01*
X-213192Y124000D01*
X-206808Y124000D01*
X-210000Y149350D01*
X-211300Y124000D01*
X-208700Y124000D02*
X-210000Y149350D01*
X-212600Y124000D01*
X-207400Y124000D02*
X-210000Y149350D01*
X-213192Y-124000D02*
X-210000Y-149350D01*
X-213192Y-124000D02*
X-206808Y-124000D01*
X-210000Y-149350D01*
X-211300Y-124000D01*
X-208700Y-124000D02*
X-210000Y-149350D01*
X-212600Y-124000D01*
X-207400Y-124000D02*
X-210000Y-149350D01*
D14*
X-216507Y-31148D02*
X-216507Y-26632D01*
X-216509Y-26499D01*
X-216515Y-26367D01*
X-216525Y-26235D01*
X-216538Y-26103D01*
X-216556Y-25971D01*
X-216577Y-25841D01*
X-216602Y-25710D01*
X-216631Y-25581D01*
X-216664Y-25453D01*
X-216700Y-25325D01*
X-216740Y-25199D01*
X-216784Y-25074D01*
X-216832Y-24950D01*
X-216883Y-24828D01*
X-216938Y-24707D01*
X-216996Y-24588D01*
X-217058Y-24470D01*
X-217123Y-24355D01*
X-217192Y-24241D01*
X-217263Y-24130D01*
X-217339Y-24021D01*
X-217417Y-23914D01*
X-217498Y-23809D01*
X-217583Y-23707D01*
X-217670Y-23607D01*
X-217760Y-23510D01*
X-217853Y-23415D01*
X-217949Y-23324D01*
X-218047Y-23235D01*
X-218148Y-23149D01*
X-218252Y-23066D01*
X-218358Y-22986D01*
X-218466Y-22910D01*
X-218576Y-22836D01*
X-218689Y-22766D01*
X-218803Y-22699D01*
X-218920Y-22636D01*
X-219038Y-22576D01*
X-219158Y-22519D01*
X-219280Y-22466D01*
X-219403Y-22417D01*
X-219527Y-22371D01*
X-219653Y-22329D01*
X-219780Y-22291D01*
X-219908Y-22256D01*
X-220037Y-22225D01*
X-220166Y-22198D01*
X-220297Y-22175D01*
X-220428Y-22155D01*
X-220560Y-22140D01*
X-220692Y-22128D01*
X-220824Y-22120D01*
X-220957Y-22116D01*
X-221089Y-22116D01*
X-221222Y-22120D01*
X-221354Y-22128D01*
X-221486Y-22140D01*
X-221618Y-22155D01*
X-221749Y-22175D01*
X-221880Y-22198D01*
X-222009Y-22225D01*
X-222138Y-22256D01*
X-222266Y-22291D01*
X-222393Y-22329D01*
X-222519Y-22371D01*
X-222643Y-22417D01*
X-222766Y-22466D01*
X-222888Y-22519D01*
X-223008Y-22576D01*
X-223126Y-22636D01*
X-223243Y-22699D01*
X-223357Y-22766D01*
X-223470Y-22836D01*
X-223580Y-22910D01*
X-223688Y-22986D01*
X-223794Y-23066D01*
X-223898Y-23149D01*
X-223999Y-23235D01*
X-224097Y-23324D01*
X-224193Y-23415D01*
X-224286Y-23510D01*
X-224376Y-23607D01*
X-224463Y-23707D01*
X-224548Y-23809D01*
X-224629Y-23914D01*
X-224707Y-24021D01*
X-224783Y-24130D01*
X-224854Y-24241D01*
X-224923Y-24355D01*
X-224988Y-24470D01*
X-225050Y-24588D01*
X-225108Y-24707D01*
X-225163Y-24828D01*
X-225214Y-24950D01*
X-225262Y-25074D01*
X-225306Y-25199D01*
X-225346Y-25325D01*
X-225382Y-25453D01*
X-225415Y-25581D01*
X-225444Y-25710D01*
X-225469Y-25841D01*
X-225490Y-25971D01*
X-225508Y-26103D01*
X-225521Y-26235D01*
X-225531Y-26367D01*
X-225537Y-26499D01*
X-225539Y-26632D01*
X-232763Y-25729D02*
X-232763Y-31148D01*
X-232763Y-25729D02*
X-232761Y-25610D01*
X-232755Y-25490D01*
X-232745Y-25371D01*
X-232731Y-25253D01*
X-232714Y-25134D01*
X-232692Y-25017D01*
X-232667Y-24900D01*
X-232637Y-24785D01*
X-232604Y-24670D01*
X-232567Y-24556D01*
X-232527Y-24444D01*
X-232482Y-24333D01*
X-232434Y-24224D01*
X-232383Y-24116D01*
X-232328Y-24010D01*
X-232269Y-23906D01*
X-232207Y-23804D01*
X-232142Y-23704D01*
X-232073Y-23606D01*
X-232001Y-23510D01*
X-231926Y-23417D01*
X-231849Y-23327D01*
X-231768Y-23239D01*
X-231684Y-23154D01*
X-231597Y-23072D01*
X-231508Y-22992D01*
X-231416Y-22916D01*
X-231322Y-22842D01*
X-231225Y-22772D01*
X-231127Y-22705D01*
X-231026Y-22641D01*
X-230922Y-22581D01*
X-230817Y-22524D01*
X-230710Y-22471D01*
X-230602Y-22421D01*
X-230492Y-22375D01*
X-230380Y-22333D01*
X-230267Y-22294D01*
X-230153Y-22259D01*
X-230038Y-22228D01*
X-229921Y-22200D01*
X-229804Y-22177D01*
X-229687Y-22157D01*
X-229568Y-22141D01*
X-229449Y-22129D01*
X-229330Y-22121D01*
X-229211Y-22117D01*
X-229091Y-22117D01*
X-228972Y-22121D01*
X-228853Y-22129D01*
X-228734Y-22141D01*
X-228615Y-22157D01*
X-228498Y-22177D01*
X-228381Y-22200D01*
X-228264Y-22228D01*
X-228149Y-22259D01*
X-228035Y-22294D01*
X-227922Y-22333D01*
X-227810Y-22375D01*
X-227700Y-22421D01*
X-227592Y-22471D01*
X-227485Y-22524D01*
X-227380Y-22581D01*
X-227276Y-22641D01*
X-227175Y-22705D01*
X-227077Y-22772D01*
X-226980Y-22842D01*
X-226886Y-22916D01*
X-226794Y-22992D01*
X-226705Y-23072D01*
X-226618Y-23154D01*
X-226534Y-23239D01*
X-226453Y-23327D01*
X-226376Y-23417D01*
X-226301Y-23510D01*
X-226229Y-23606D01*
X-226160Y-23704D01*
X-226095Y-23804D01*
X-226033Y-23906D01*
X-225974Y-24010D01*
X-225919Y-24116D01*
X-225868Y-24224D01*
X-225820Y-24333D01*
X-225775Y-24444D01*
X-225735Y-24556D01*
X-225698Y-24670D01*
X-225665Y-24785D01*
X-225635Y-24900D01*
X-225610Y-25017D01*
X-225588Y-25134D01*
X-225571Y-25253D01*
X-225557Y-25371D01*
X-225547Y-25490D01*
X-225541Y-25610D01*
X-225539Y-25729D01*
X-225538Y-25729D02*
X-225538Y-29342D01*
X-224635Y-15517D02*
X-224955Y-15513D01*
X-225274Y-15502D01*
X-225594Y-15483D01*
X-225912Y-15456D01*
X-226230Y-15422D01*
X-226547Y-15380D01*
X-226863Y-15330D01*
X-227178Y-15273D01*
X-227491Y-15209D01*
X-227803Y-15137D01*
X-228113Y-15058D01*
X-228420Y-14971D01*
X-228726Y-14877D01*
X-229029Y-14776D01*
X-229330Y-14667D01*
X-229628Y-14552D01*
X-229924Y-14429D01*
X-230216Y-14299D01*
X-230505Y-14162D01*
X-230506Y-14162D02*
X-230614Y-14123D01*
X-230721Y-14080D01*
X-230826Y-14034D01*
X-230930Y-13983D01*
X-231032Y-13930D01*
X-231132Y-13873D01*
X-231230Y-13812D01*
X-231325Y-13748D01*
X-231419Y-13681D01*
X-231510Y-13610D01*
X-231599Y-13537D01*
X-231685Y-13460D01*
X-231768Y-13381D01*
X-231849Y-13299D01*
X-231927Y-13214D01*
X-232001Y-13126D01*
X-232073Y-13036D01*
X-232141Y-12944D01*
X-232207Y-12849D01*
X-232269Y-12752D01*
X-232327Y-12653D01*
X-232383Y-12551D01*
X-232434Y-12449D01*
X-232482Y-12344D01*
X-232527Y-12238D01*
X-232568Y-12130D01*
X-232605Y-12021D01*
X-232638Y-11911D01*
X-232667Y-11799D01*
X-232693Y-11687D01*
X-232715Y-11574D01*
X-232732Y-11460D01*
X-232746Y-11346D01*
X-232756Y-11231D01*
X-232762Y-11116D01*
X-232764Y-11001D01*
X-232763Y-11001D02*
X-232761Y-10886D01*
X-232755Y-10771D01*
X-232745Y-10656D01*
X-232731Y-10542D01*
X-232714Y-10428D01*
X-232692Y-10315D01*
X-232666Y-10203D01*
X-232637Y-10091D01*
X-232604Y-9981D01*
X-232567Y-9872D01*
X-232526Y-9764D01*
X-232481Y-9658D01*
X-232433Y-9554D01*
X-232382Y-9451D01*
X-232326Y-9350D01*
X-232268Y-9250D01*
X-232206Y-9153D01*
X-232141Y-9059D01*
X-232072Y-8966D01*
X-232000Y-8876D01*
X-231926Y-8788D01*
X-231848Y-8703D01*
X-231767Y-8621D01*
X-231684Y-8542D01*
X-231598Y-8465D01*
X-231509Y-8392D01*
X-231418Y-8321D01*
X-231324Y-8254D01*
X-231229Y-8190D01*
X-231131Y-8129D01*
X-231031Y-8072D01*
X-230929Y-8019D01*
X-230825Y-7968D01*
X-230720Y-7922D01*
X-230613Y-7879D01*
X-230505Y-7840D01*
X-230505Y-7841D02*
X-230216Y-7704D01*
X-229924Y-7574D01*
X-229628Y-7451D01*
X-229330Y-7336D01*
X-229029Y-7227D01*
X-228726Y-7126D01*
X-228420Y-7032D01*
X-228113Y-6945D01*
X-227803Y-6866D01*
X-227491Y-6794D01*
X-227178Y-6730D01*
X-226863Y-6673D01*
X-226547Y-6623D01*
X-226230Y-6581D01*
X-225912Y-6547D01*
X-225594Y-6520D01*
X-225274Y-6501D01*
X-224955Y-6490D01*
X-224635Y-6486D01*
X-224635Y-15516D02*
X-224315Y-15512D01*
X-223996Y-15501D01*
X-223676Y-15482D01*
X-223358Y-15455D01*
X-223040Y-15421D01*
X-222723Y-15379D01*
X-222407Y-15329D01*
X-222092Y-15272D01*
X-221779Y-15208D01*
X-221467Y-15136D01*
X-221157Y-15057D01*
X-220850Y-14970D01*
X-220544Y-14876D01*
X-220241Y-14775D01*
X-219940Y-14666D01*
X-219642Y-14551D01*
X-219346Y-14428D01*
X-219054Y-14298D01*
X-218765Y-14161D01*
X-218765Y-14162D02*
X-218657Y-14123D01*
X-218550Y-14080D01*
X-218445Y-14034D01*
X-218341Y-13983D01*
X-218239Y-13930D01*
X-218139Y-13873D01*
X-218041Y-13812D01*
X-217946Y-13748D01*
X-217852Y-13681D01*
X-217761Y-13610D01*
X-217672Y-13537D01*
X-217586Y-13460D01*
X-217503Y-13381D01*
X-217422Y-13299D01*
X-217344Y-13214D01*
X-217270Y-13126D01*
X-217198Y-13036D01*
X-217129Y-12943D01*
X-217064Y-12849D01*
X-217002Y-12752D01*
X-216944Y-12652D01*
X-216888Y-12551D01*
X-216837Y-12449D01*
X-216789Y-12344D01*
X-216744Y-12238D01*
X-216703Y-12130D01*
X-216666Y-12021D01*
X-216633Y-11911D01*
X-216604Y-11799D01*
X-216578Y-11687D01*
X-216556Y-11574D01*
X-216539Y-11460D01*
X-216525Y-11346D01*
X-216515Y-11231D01*
X-216509Y-11116D01*
X-216507Y-11001D01*
X-218765Y-7841D02*
X-219054Y-7704D01*
X-219346Y-7574D01*
X-219642Y-7451D01*
X-219940Y-7336D01*
X-220241Y-7227D01*
X-220544Y-7126D01*
X-220850Y-7032D01*
X-221157Y-6945D01*
X-221467Y-6866D01*
X-221779Y-6794D01*
X-222092Y-6730D01*
X-222407Y-6673D01*
X-222723Y-6623D01*
X-223040Y-6581D01*
X-223358Y-6547D01*
X-223676Y-6520D01*
X-223996Y-6501D01*
X-224315Y-6490D01*
X-224635Y-6486D01*
X-218765Y-7840D02*
X-218657Y-7879D01*
X-218550Y-7922D01*
X-218445Y-7968D01*
X-218341Y-8019D01*
X-218239Y-8072D01*
X-218139Y-8130D01*
X-218041Y-8190D01*
X-217946Y-8254D01*
X-217852Y-8321D01*
X-217761Y-8392D01*
X-217672Y-8465D01*
X-217586Y-8542D01*
X-217503Y-8621D01*
X-217422Y-8703D01*
X-217344Y-8788D01*
X-217270Y-8876D01*
X-217198Y-8966D01*
X-217129Y-9059D01*
X-217064Y-9153D01*
X-217002Y-9250D01*
X-216944Y-9350D01*
X-216888Y-9451D01*
X-216837Y-9554D01*
X-216789Y-9658D01*
X-216744Y-9764D01*
X-216703Y-9872D01*
X-216666Y-9981D01*
X-216633Y-10091D01*
X-216604Y-10203D01*
X-216578Y-10315D01*
X-216556Y-10428D01*
X-216539Y-10542D01*
X-216525Y-10656D01*
X-216515Y-10771D01*
X-216509Y-10886D01*
X-216507Y-11001D01*
X-220119Y-14614D02*
X-229151Y-7389D01*
X-217410Y-511D02*
X-216507Y-511D01*
X-217410Y-511D02*
X-217410Y392D01*
X-216507Y392D01*
X-216507Y-511D01*
X-224635Y6367D02*
X-224955Y6371D01*
X-225274Y6382D01*
X-225594Y6401D01*
X-225912Y6428D01*
X-226230Y6462D01*
X-226547Y6504D01*
X-226863Y6554D01*
X-227178Y6611D01*
X-227491Y6675D01*
X-227803Y6747D01*
X-228113Y6826D01*
X-228420Y6913D01*
X-228726Y7007D01*
X-229029Y7108D01*
X-229330Y7217D01*
X-229628Y7332D01*
X-229924Y7455D01*
X-230216Y7585D01*
X-230505Y7722D01*
X-230506Y7721D02*
X-230614Y7760D01*
X-230721Y7803D01*
X-230826Y7849D01*
X-230930Y7900D01*
X-231032Y7953D01*
X-231132Y8010D01*
X-231230Y8071D01*
X-231325Y8135D01*
X-231419Y8202D01*
X-231510Y8273D01*
X-231599Y8346D01*
X-231685Y8423D01*
X-231768Y8502D01*
X-231849Y8584D01*
X-231927Y8669D01*
X-232001Y8757D01*
X-232073Y8847D01*
X-232141Y8939D01*
X-232207Y9034D01*
X-232269Y9131D01*
X-232327Y9230D01*
X-232383Y9332D01*
X-232434Y9434D01*
X-232482Y9539D01*
X-232527Y9645D01*
X-232568Y9753D01*
X-232605Y9862D01*
X-232638Y9972D01*
X-232667Y10084D01*
X-232693Y10196D01*
X-232715Y10309D01*
X-232732Y10423D01*
X-232746Y10537D01*
X-232756Y10652D01*
X-232762Y10767D01*
X-232764Y10882D01*
X-232763Y10882D02*
X-232761Y10997D01*
X-232755Y11112D01*
X-232745Y11227D01*
X-232731Y11341D01*
X-232714Y11455D01*
X-232692Y11568D01*
X-232666Y11680D01*
X-232637Y11792D01*
X-232604Y11902D01*
X-232567Y12011D01*
X-232526Y12119D01*
X-232481Y12225D01*
X-232433Y12330D01*
X-232382Y12432D01*
X-232326Y12533D01*
X-232268Y12633D01*
X-232206Y12730D01*
X-232141Y12824D01*
X-232072Y12917D01*
X-232000Y13007D01*
X-231926Y13095D01*
X-231848Y13180D01*
X-231767Y13262D01*
X-231684Y13341D01*
X-231598Y13418D01*
X-231509Y13491D01*
X-231418Y13562D01*
X-231324Y13629D01*
X-231229Y13693D01*
X-231131Y13754D01*
X-231031Y13811D01*
X-230929Y13864D01*
X-230825Y13915D01*
X-230720Y13961D01*
X-230613Y14004D01*
X-230505Y14043D01*
X-230216Y14180D01*
X-229924Y14310D01*
X-229628Y14433D01*
X-229330Y14548D01*
X-229029Y14657D01*
X-228726Y14758D01*
X-228420Y14852D01*
X-228113Y14939D01*
X-227803Y15018D01*
X-227491Y15090D01*
X-227178Y15154D01*
X-226863Y15211D01*
X-226547Y15261D01*
X-226230Y15303D01*
X-225912Y15337D01*
X-225594Y15364D01*
X-225274Y15383D01*
X-224955Y15394D01*
X-224635Y15398D01*
X-224635Y6367D02*
X-224315Y6371D01*
X-223996Y6382D01*
X-223676Y6401D01*
X-223358Y6428D01*
X-223040Y6462D01*
X-222723Y6504D01*
X-222407Y6554D01*
X-222092Y6611D01*
X-221779Y6675D01*
X-221467Y6747D01*
X-221157Y6826D01*
X-220850Y6913D01*
X-220544Y7007D01*
X-220241Y7108D01*
X-219940Y7217D01*
X-219642Y7332D01*
X-219346Y7455D01*
X-219054Y7585D01*
X-218765Y7722D01*
X-218765Y7721D02*
X-218657Y7760D01*
X-218550Y7803D01*
X-218445Y7849D01*
X-218341Y7900D01*
X-218239Y7953D01*
X-218139Y8010D01*
X-218041Y8071D01*
X-217946Y8135D01*
X-217852Y8202D01*
X-217761Y8273D01*
X-217672Y8346D01*
X-217586Y8423D01*
X-217503Y8502D01*
X-217422Y8584D01*
X-217344Y8669D01*
X-217270Y8757D01*
X-217198Y8847D01*
X-217129Y8940D01*
X-217064Y9034D01*
X-217002Y9131D01*
X-216944Y9231D01*
X-216888Y9332D01*
X-216837Y9434D01*
X-216789Y9539D01*
X-216744Y9645D01*
X-216703Y9753D01*
X-216666Y9862D01*
X-216633Y9972D01*
X-216604Y10084D01*
X-216578Y10196D01*
X-216556Y10309D01*
X-216539Y10423D01*
X-216525Y10537D01*
X-216515Y10652D01*
X-216509Y10767D01*
X-216507Y10882D01*
X-218765Y14043D02*
X-219054Y14180D01*
X-219346Y14310D01*
X-219642Y14433D01*
X-219940Y14548D01*
X-220241Y14657D01*
X-220544Y14758D01*
X-220850Y14852D01*
X-221157Y14939D01*
X-221467Y15018D01*
X-221779Y15090D01*
X-222092Y15154D01*
X-222407Y15211D01*
X-222723Y15261D01*
X-223040Y15303D01*
X-223358Y15337D01*
X-223676Y15364D01*
X-223996Y15383D01*
X-224315Y15394D01*
X-224635Y15398D01*
X-218765Y14043D02*
X-218657Y14004D01*
X-218550Y13961D01*
X-218445Y13915D01*
X-218341Y13864D01*
X-218239Y13811D01*
X-218139Y13754D01*
X-218041Y13693D01*
X-217946Y13629D01*
X-217852Y13562D01*
X-217761Y13491D01*
X-217672Y13418D01*
X-217586Y13341D01*
X-217503Y13262D01*
X-217422Y13180D01*
X-217344Y13095D01*
X-217270Y13007D01*
X-217198Y12917D01*
X-217129Y12824D01*
X-217064Y12730D01*
X-217002Y12633D01*
X-216944Y12533D01*
X-216888Y12432D01*
X-216837Y12329D01*
X-216789Y12225D01*
X-216744Y12119D01*
X-216703Y12011D01*
X-216666Y11902D01*
X-216633Y11792D01*
X-216604Y11680D01*
X-216578Y11568D01*
X-216556Y11455D01*
X-216539Y11341D01*
X-216525Y11227D01*
X-216515Y11112D01*
X-216509Y10997D01*
X-216507Y10882D01*
X-220119Y7270D02*
X-229151Y14495D01*
X-224635Y21998D02*
X-224955Y22002D01*
X-225274Y22013D01*
X-225594Y22032D01*
X-225912Y22059D01*
X-226230Y22093D01*
X-226547Y22135D01*
X-226863Y22185D01*
X-227178Y22242D01*
X-227491Y22306D01*
X-227803Y22378D01*
X-228113Y22457D01*
X-228420Y22544D01*
X-228726Y22638D01*
X-229029Y22739D01*
X-229330Y22848D01*
X-229628Y22963D01*
X-229924Y23086D01*
X-230216Y23216D01*
X-230505Y23353D01*
X-230506Y23353D02*
X-230614Y23392D01*
X-230721Y23435D01*
X-230826Y23481D01*
X-230930Y23532D01*
X-231032Y23585D01*
X-231132Y23642D01*
X-231230Y23703D01*
X-231325Y23767D01*
X-231419Y23834D01*
X-231510Y23905D01*
X-231599Y23978D01*
X-231685Y24055D01*
X-231768Y24134D01*
X-231849Y24216D01*
X-231927Y24301D01*
X-232001Y24389D01*
X-232073Y24479D01*
X-232141Y24571D01*
X-232207Y24666D01*
X-232269Y24763D01*
X-232327Y24862D01*
X-232383Y24964D01*
X-232434Y25066D01*
X-232482Y25171D01*
X-232527Y25277D01*
X-232568Y25385D01*
X-232605Y25494D01*
X-232638Y25604D01*
X-232667Y25716D01*
X-232693Y25828D01*
X-232715Y25941D01*
X-232732Y26055D01*
X-232746Y26169D01*
X-232756Y26284D01*
X-232762Y26399D01*
X-232764Y26514D01*
X-232763Y26514D02*
X-232761Y26629D01*
X-232755Y26744D01*
X-232745Y26859D01*
X-232731Y26973D01*
X-232714Y27087D01*
X-232692Y27200D01*
X-232666Y27312D01*
X-232637Y27424D01*
X-232604Y27534D01*
X-232567Y27643D01*
X-232526Y27751D01*
X-232481Y27857D01*
X-232433Y27962D01*
X-232382Y28064D01*
X-232326Y28165D01*
X-232268Y28265D01*
X-232206Y28362D01*
X-232141Y28456D01*
X-232072Y28549D01*
X-232000Y28639D01*
X-231926Y28727D01*
X-231848Y28812D01*
X-231767Y28894D01*
X-231684Y28973D01*
X-231598Y29050D01*
X-231509Y29123D01*
X-231418Y29194D01*
X-231324Y29261D01*
X-231229Y29325D01*
X-231131Y29386D01*
X-231031Y29443D01*
X-230929Y29496D01*
X-230825Y29547D01*
X-230720Y29593D01*
X-230613Y29636D01*
X-230505Y29675D01*
X-230505Y29674D02*
X-230216Y29811D01*
X-229924Y29941D01*
X-229628Y30064D01*
X-229330Y30179D01*
X-229029Y30288D01*
X-228726Y30389D01*
X-228420Y30483D01*
X-228113Y30570D01*
X-227803Y30649D01*
X-227491Y30721D01*
X-227178Y30785D01*
X-226863Y30842D01*
X-226547Y30892D01*
X-226230Y30934D01*
X-225912Y30968D01*
X-225594Y30995D01*
X-225274Y31014D01*
X-224955Y31025D01*
X-224635Y31029D01*
X-224635Y21998D02*
X-224315Y22002D01*
X-223996Y22013D01*
X-223676Y22032D01*
X-223358Y22059D01*
X-223040Y22093D01*
X-222723Y22135D01*
X-222407Y22185D01*
X-222092Y22242D01*
X-221779Y22306D01*
X-221467Y22378D01*
X-221157Y22457D01*
X-220850Y22544D01*
X-220544Y22638D01*
X-220241Y22739D01*
X-219940Y22848D01*
X-219642Y22963D01*
X-219346Y23086D01*
X-219054Y23216D01*
X-218765Y23353D01*
X-218657Y23392D01*
X-218550Y23435D01*
X-218445Y23481D01*
X-218341Y23532D01*
X-218239Y23585D01*
X-218139Y23642D01*
X-218041Y23703D01*
X-217946Y23767D01*
X-217852Y23834D01*
X-217761Y23905D01*
X-217672Y23978D01*
X-217586Y24055D01*
X-217503Y24134D01*
X-217422Y24216D01*
X-217344Y24301D01*
X-217270Y24389D01*
X-217198Y24479D01*
X-217129Y24572D01*
X-217064Y24666D01*
X-217002Y24763D01*
X-216944Y24863D01*
X-216888Y24964D01*
X-216837Y25066D01*
X-216789Y25171D01*
X-216744Y25277D01*
X-216703Y25385D01*
X-216666Y25494D01*
X-216633Y25604D01*
X-216604Y25716D01*
X-216578Y25828D01*
X-216556Y25941D01*
X-216539Y26055D01*
X-216525Y26169D01*
X-216515Y26284D01*
X-216509Y26399D01*
X-216507Y26514D01*
X-218765Y29674D02*
X-219054Y29811D01*
X-219346Y29941D01*
X-219642Y30064D01*
X-219940Y30179D01*
X-220241Y30288D01*
X-220544Y30389D01*
X-220850Y30483D01*
X-221157Y30570D01*
X-221467Y30649D01*
X-221779Y30721D01*
X-222092Y30785D01*
X-222407Y30842D01*
X-222723Y30892D01*
X-223040Y30934D01*
X-223358Y30968D01*
X-223676Y30995D01*
X-223996Y31014D01*
X-224315Y31025D01*
X-224635Y31029D01*
X-218765Y29675D02*
X-218657Y29636D01*
X-218550Y29593D01*
X-218445Y29547D01*
X-218341Y29496D01*
X-218239Y29443D01*
X-218139Y29386D01*
X-218041Y29325D01*
X-217946Y29261D01*
X-217852Y29194D01*
X-217761Y29123D01*
X-217672Y29050D01*
X-217586Y28973D01*
X-217503Y28894D01*
X-217422Y28812D01*
X-217344Y28727D01*
X-217270Y28639D01*
X-217198Y28549D01*
X-217129Y28456D01*
X-217064Y28362D01*
X-217002Y28265D01*
X-216944Y28165D01*
X-216888Y28064D01*
X-216837Y27961D01*
X-216789Y27857D01*
X-216744Y27751D01*
X-216703Y27643D01*
X-216666Y27534D01*
X-216633Y27424D01*
X-216604Y27312D01*
X-216578Y27200D01*
X-216556Y27087D01*
X-216539Y26973D01*
X-216525Y26859D01*
X-216515Y26744D01*
X-216509Y26629D01*
X-216507Y26514D01*
X-220119Y22901D02*
X-229151Y30126D01*
D13*
X-30000Y70000D02*
X259500Y70000D01*
X259500Y150000D02*
X-30000Y150000D01*
X240000Y149350D02*
X240000Y70650D01*
X236808Y96000D01*
X243192Y96000D01*
X240000Y70650D01*
X238700Y96000D01*
X241300Y96000D02*
X240000Y70650D01*
X237400Y96000D01*
X242600Y96000D02*
X240000Y70650D01*
X236808Y124000D02*
X240000Y149350D01*
X236808Y124000D02*
X243192Y124000D01*
X240000Y149350D01*
X238700Y124000D01*
X241300Y124000D02*
X240000Y149350D01*
X237400Y124000D01*
X242600Y124000D02*
X240000Y149350D01*
D14*
X228977Y94980D02*
X228844Y94978D01*
X228712Y94972D01*
X228580Y94962D01*
X228448Y94949D01*
X228316Y94931D01*
X228186Y94910D01*
X228055Y94885D01*
X227926Y94856D01*
X227798Y94823D01*
X227670Y94787D01*
X227544Y94747D01*
X227419Y94703D01*
X227295Y94655D01*
X227173Y94604D01*
X227052Y94549D01*
X226933Y94491D01*
X226815Y94429D01*
X226700Y94364D01*
X226586Y94295D01*
X226475Y94224D01*
X226366Y94148D01*
X226259Y94070D01*
X226154Y93989D01*
X226052Y93904D01*
X225952Y93817D01*
X225855Y93727D01*
X225760Y93634D01*
X225669Y93538D01*
X225580Y93440D01*
X225494Y93339D01*
X225411Y93235D01*
X225331Y93129D01*
X225255Y93021D01*
X225181Y92911D01*
X225111Y92798D01*
X225044Y92684D01*
X224981Y92567D01*
X224921Y92449D01*
X224864Y92329D01*
X224811Y92207D01*
X224762Y92084D01*
X224716Y91960D01*
X224674Y91834D01*
X224636Y91707D01*
X224601Y91579D01*
X224570Y91450D01*
X224543Y91321D01*
X224520Y91190D01*
X224500Y91059D01*
X224485Y90927D01*
X224473Y90795D01*
X224465Y90663D01*
X224461Y90530D01*
X224461Y90398D01*
X224465Y90265D01*
X224473Y90133D01*
X224485Y90001D01*
X224500Y89869D01*
X224520Y89738D01*
X224543Y89607D01*
X224570Y89478D01*
X224601Y89349D01*
X224636Y89221D01*
X224674Y89094D01*
X224716Y88968D01*
X224762Y88844D01*
X224811Y88721D01*
X224864Y88599D01*
X224921Y88479D01*
X224981Y88361D01*
X225044Y88244D01*
X225111Y88130D01*
X225181Y88017D01*
X225255Y87907D01*
X225331Y87799D01*
X225411Y87693D01*
X225494Y87589D01*
X225580Y87488D01*
X225669Y87390D01*
X225760Y87294D01*
X225855Y87201D01*
X225952Y87111D01*
X226052Y87024D01*
X226154Y86939D01*
X226259Y86858D01*
X226366Y86780D01*
X226475Y86704D01*
X226586Y86633D01*
X226700Y86564D01*
X226815Y86499D01*
X226933Y86437D01*
X227052Y86379D01*
X227173Y86324D01*
X227295Y86273D01*
X227419Y86225D01*
X227544Y86181D01*
X227670Y86141D01*
X227798Y86105D01*
X227926Y86072D01*
X228055Y86043D01*
X228186Y86018D01*
X228316Y85997D01*
X228448Y85979D01*
X228580Y85966D01*
X228712Y85956D01*
X228844Y85950D01*
X228977Y85948D01*
X229110Y85950D01*
X229242Y85956D01*
X229374Y85966D01*
X229506Y85979D01*
X229638Y85997D01*
X229768Y86018D01*
X229899Y86043D01*
X230028Y86072D01*
X230156Y86105D01*
X230284Y86141D01*
X230410Y86181D01*
X230535Y86225D01*
X230659Y86273D01*
X230781Y86324D01*
X230902Y86379D01*
X231021Y86437D01*
X231139Y86499D01*
X231254Y86564D01*
X231368Y86633D01*
X231479Y86704D01*
X231588Y86780D01*
X231695Y86858D01*
X231800Y86939D01*
X231902Y87024D01*
X232002Y87111D01*
X232099Y87201D01*
X232194Y87294D01*
X232285Y87390D01*
X232374Y87488D01*
X232460Y87589D01*
X232543Y87693D01*
X232623Y87799D01*
X232699Y87907D01*
X232773Y88017D01*
X232843Y88130D01*
X232910Y88244D01*
X232973Y88361D01*
X233033Y88479D01*
X233090Y88599D01*
X233143Y88721D01*
X233192Y88844D01*
X233238Y88968D01*
X233280Y89094D01*
X233318Y89221D01*
X233353Y89349D01*
X233384Y89478D01*
X233411Y89607D01*
X233434Y89738D01*
X233454Y89869D01*
X233469Y90001D01*
X233481Y90133D01*
X233489Y90265D01*
X233493Y90398D01*
X233493Y90530D01*
X233489Y90663D01*
X233481Y90795D01*
X233469Y90927D01*
X233454Y91059D01*
X233434Y91190D01*
X233411Y91321D01*
X233384Y91450D01*
X233353Y91579D01*
X233318Y91707D01*
X233280Y91834D01*
X233238Y91960D01*
X233192Y92084D01*
X233143Y92207D01*
X233090Y92329D01*
X233033Y92449D01*
X232973Y92567D01*
X232910Y92684D01*
X232843Y92798D01*
X232773Y92911D01*
X232699Y93021D01*
X232623Y93129D01*
X232543Y93235D01*
X232460Y93339D01*
X232374Y93440D01*
X232285Y93538D01*
X232194Y93634D01*
X232099Y93727D01*
X232002Y93817D01*
X231902Y93904D01*
X231800Y93989D01*
X231695Y94070D01*
X231588Y94148D01*
X231479Y94224D01*
X231368Y94295D01*
X231254Y94364D01*
X231139Y94429D01*
X231021Y94491D01*
X230902Y94549D01*
X230781Y94604D01*
X230659Y94655D01*
X230535Y94703D01*
X230410Y94747D01*
X230284Y94787D01*
X230156Y94823D01*
X230028Y94856D01*
X229899Y94885D01*
X229768Y94910D01*
X229638Y94931D01*
X229506Y94949D01*
X229374Y94962D01*
X229242Y94972D01*
X229110Y94978D01*
X228977Y94980D01*
X220849Y94076D02*
X220730Y94074D01*
X220610Y94068D01*
X220491Y94058D01*
X220373Y94044D01*
X220254Y94027D01*
X220137Y94005D01*
X220020Y93980D01*
X219905Y93950D01*
X219790Y93917D01*
X219676Y93880D01*
X219564Y93840D01*
X219453Y93795D01*
X219344Y93747D01*
X219236Y93696D01*
X219130Y93641D01*
X219026Y93582D01*
X218924Y93520D01*
X218824Y93455D01*
X218726Y93386D01*
X218630Y93314D01*
X218537Y93239D01*
X218447Y93162D01*
X218359Y93081D01*
X218274Y92997D01*
X218192Y92910D01*
X218112Y92821D01*
X218036Y92729D01*
X217962Y92635D01*
X217892Y92538D01*
X217825Y92440D01*
X217761Y92339D01*
X217701Y92235D01*
X217644Y92130D01*
X217591Y92023D01*
X217541Y91915D01*
X217495Y91805D01*
X217453Y91693D01*
X217414Y91580D01*
X217379Y91466D01*
X217348Y91351D01*
X217320Y91234D01*
X217297Y91117D01*
X217277Y91000D01*
X217261Y90881D01*
X217249Y90762D01*
X217241Y90643D01*
X217237Y90524D01*
X217237Y90404D01*
X217241Y90285D01*
X217249Y90166D01*
X217261Y90047D01*
X217277Y89928D01*
X217297Y89811D01*
X217320Y89694D01*
X217348Y89577D01*
X217379Y89462D01*
X217414Y89348D01*
X217453Y89235D01*
X217495Y89123D01*
X217541Y89013D01*
X217591Y88905D01*
X217644Y88798D01*
X217701Y88693D01*
X217761Y88589D01*
X217825Y88488D01*
X217892Y88390D01*
X217962Y88293D01*
X218036Y88199D01*
X218112Y88107D01*
X218192Y88018D01*
X218274Y87931D01*
X218359Y87847D01*
X218447Y87766D01*
X218537Y87689D01*
X218630Y87614D01*
X218726Y87542D01*
X218824Y87473D01*
X218924Y87408D01*
X219026Y87346D01*
X219130Y87287D01*
X219236Y87232D01*
X219344Y87181D01*
X219453Y87133D01*
X219564Y87088D01*
X219676Y87048D01*
X219790Y87011D01*
X219905Y86978D01*
X220020Y86948D01*
X220137Y86923D01*
X220254Y86901D01*
X220373Y86884D01*
X220491Y86870D01*
X220610Y86860D01*
X220730Y86854D01*
X220849Y86852D01*
X220968Y86854D01*
X221088Y86860D01*
X221207Y86870D01*
X221325Y86884D01*
X221444Y86901D01*
X221561Y86923D01*
X221678Y86948D01*
X221793Y86978D01*
X221908Y87011D01*
X222022Y87048D01*
X222134Y87088D01*
X222245Y87133D01*
X222354Y87181D01*
X222462Y87232D01*
X222568Y87287D01*
X222672Y87346D01*
X222774Y87408D01*
X222874Y87473D01*
X222972Y87542D01*
X223068Y87614D01*
X223161Y87689D01*
X223251Y87766D01*
X223339Y87847D01*
X223424Y87931D01*
X223506Y88018D01*
X223586Y88107D01*
X223662Y88199D01*
X223736Y88293D01*
X223806Y88390D01*
X223873Y88488D01*
X223937Y88589D01*
X223997Y88693D01*
X224054Y88798D01*
X224107Y88905D01*
X224157Y89013D01*
X224203Y89123D01*
X224245Y89235D01*
X224284Y89348D01*
X224319Y89462D01*
X224350Y89577D01*
X224378Y89694D01*
X224401Y89811D01*
X224421Y89928D01*
X224437Y90047D01*
X224449Y90166D01*
X224457Y90285D01*
X224461Y90404D01*
X224461Y90524D01*
X224457Y90643D01*
X224449Y90762D01*
X224437Y90881D01*
X224421Y91000D01*
X224401Y91117D01*
X224378Y91234D01*
X224350Y91351D01*
X224319Y91466D01*
X224284Y91580D01*
X224245Y91693D01*
X224203Y91805D01*
X224157Y91915D01*
X224107Y92023D01*
X224054Y92130D01*
X223997Y92235D01*
X223937Y92339D01*
X223873Y92440D01*
X223806Y92538D01*
X223736Y92635D01*
X223662Y92729D01*
X223586Y92821D01*
X223506Y92910D01*
X223424Y92997D01*
X223339Y93081D01*
X223251Y93162D01*
X223161Y93239D01*
X223068Y93314D01*
X222972Y93386D01*
X222874Y93455D01*
X222774Y93520D01*
X222672Y93582D01*
X222568Y93641D01*
X222462Y93696D01*
X222354Y93747D01*
X222245Y93795D01*
X222134Y93840D01*
X222022Y93880D01*
X221908Y93917D01*
X221793Y93950D01*
X221678Y93980D01*
X221561Y94005D01*
X221444Y94027D01*
X221325Y94044D01*
X221207Y94058D01*
X221088Y94068D01*
X220968Y94074D01*
X220849Y94076D01*
X232590Y100954D02*
X233493Y100954D01*
X232590Y100954D02*
X232590Y101857D01*
X233493Y101857D01*
X233493Y100954D01*
X225365Y107832D02*
X225045Y107836D01*
X224726Y107847D01*
X224406Y107866D01*
X224088Y107893D01*
X223770Y107927D01*
X223453Y107969D01*
X223137Y108019D01*
X222822Y108076D01*
X222509Y108140D01*
X222197Y108212D01*
X221887Y108291D01*
X221580Y108378D01*
X221274Y108472D01*
X220971Y108573D01*
X220670Y108682D01*
X220372Y108797D01*
X220076Y108920D01*
X219784Y109050D01*
X219495Y109187D01*
X219494Y109187D02*
X219386Y109226D01*
X219279Y109269D01*
X219174Y109315D01*
X219071Y109365D01*
X218969Y109419D01*
X218869Y109476D01*
X218771Y109537D01*
X218675Y109601D01*
X218582Y109668D01*
X218491Y109738D01*
X218402Y109812D01*
X218316Y109888D01*
X218233Y109968D01*
X218152Y110050D01*
X218074Y110135D01*
X218000Y110222D01*
X217928Y110313D01*
X217859Y110405D01*
X217794Y110500D01*
X217732Y110597D01*
X217673Y110696D01*
X217618Y110797D01*
X217567Y110900D01*
X217519Y111005D01*
X217474Y111111D01*
X217433Y111218D01*
X217396Y111327D01*
X217363Y111438D01*
X217334Y111549D01*
X217308Y111661D01*
X217286Y111774D01*
X217269Y111888D01*
X217255Y112002D01*
X217245Y112117D01*
X217239Y112232D01*
X217237Y112347D01*
X217239Y112462D01*
X217245Y112577D01*
X217255Y112692D01*
X217269Y112806D01*
X217286Y112920D01*
X217308Y113033D01*
X217334Y113145D01*
X217363Y113257D01*
X217396Y113367D01*
X217433Y113476D01*
X217474Y113584D01*
X217519Y113690D01*
X217567Y113795D01*
X217618Y113897D01*
X217674Y113999D01*
X217732Y114098D01*
X217794Y114195D01*
X217860Y114290D01*
X217928Y114382D01*
X218000Y114472D01*
X218074Y114560D01*
X218152Y114645D01*
X218233Y114727D01*
X218316Y114806D01*
X218402Y114883D01*
X218491Y114956D01*
X218582Y115027D01*
X218676Y115094D01*
X218771Y115158D01*
X218869Y115219D01*
X218969Y115276D01*
X219071Y115329D01*
X219175Y115380D01*
X219280Y115426D01*
X219387Y115469D01*
X219495Y115508D01*
X219784Y115645D01*
X220076Y115775D01*
X220372Y115898D01*
X220670Y116013D01*
X220971Y116122D01*
X221274Y116223D01*
X221580Y116317D01*
X221887Y116404D01*
X222197Y116483D01*
X222509Y116555D01*
X222822Y116619D01*
X223137Y116676D01*
X223453Y116726D01*
X223770Y116768D01*
X224088Y116802D01*
X224406Y116829D01*
X224726Y116848D01*
X225045Y116859D01*
X225365Y116863D01*
X225365Y107832D02*
X225685Y107836D01*
X226004Y107847D01*
X226324Y107866D01*
X226642Y107893D01*
X226960Y107927D01*
X227277Y107969D01*
X227593Y108019D01*
X227908Y108076D01*
X228221Y108140D01*
X228533Y108212D01*
X228843Y108291D01*
X229150Y108378D01*
X229456Y108472D01*
X229759Y108573D01*
X230060Y108682D01*
X230358Y108797D01*
X230654Y108920D01*
X230946Y109050D01*
X231235Y109187D01*
X231236Y109186D02*
X231344Y109225D01*
X231451Y109268D01*
X231556Y109314D01*
X231660Y109365D01*
X231762Y109418D01*
X231862Y109475D01*
X231960Y109536D01*
X232055Y109600D01*
X232149Y109667D01*
X232240Y109738D01*
X232329Y109811D01*
X232415Y109888D01*
X232498Y109967D01*
X232579Y110049D01*
X232657Y110134D01*
X232731Y110222D01*
X232803Y110312D01*
X232872Y110405D01*
X232937Y110499D01*
X232999Y110596D01*
X233057Y110696D01*
X233113Y110797D01*
X233164Y110899D01*
X233212Y111004D01*
X233257Y111110D01*
X233298Y111218D01*
X233335Y111327D01*
X233368Y111437D01*
X233397Y111549D01*
X233423Y111661D01*
X233445Y111774D01*
X233462Y111888D01*
X233476Y112002D01*
X233486Y112117D01*
X233492Y112232D01*
X233494Y112347D01*
X231235Y115508D02*
X230946Y115645D01*
X230654Y115775D01*
X230358Y115898D01*
X230060Y116013D01*
X229759Y116122D01*
X229456Y116223D01*
X229150Y116317D01*
X228843Y116404D01*
X228533Y116483D01*
X228221Y116555D01*
X227908Y116619D01*
X227593Y116676D01*
X227277Y116726D01*
X226960Y116768D01*
X226642Y116802D01*
X226324Y116829D01*
X226004Y116848D01*
X225685Y116859D01*
X225365Y116863D01*
X231235Y115508D02*
X231343Y115469D01*
X231450Y115426D01*
X231555Y115380D01*
X231659Y115329D01*
X231761Y115276D01*
X231861Y115219D01*
X231959Y115158D01*
X232054Y115094D01*
X232148Y115027D01*
X232239Y114956D01*
X232328Y114883D01*
X232414Y114806D01*
X232497Y114727D01*
X232578Y114645D01*
X232656Y114560D01*
X232730Y114472D01*
X232802Y114382D01*
X232871Y114289D01*
X232936Y114195D01*
X232998Y114098D01*
X233056Y113998D01*
X233112Y113897D01*
X233163Y113794D01*
X233211Y113690D01*
X233256Y113584D01*
X233297Y113476D01*
X233334Y113367D01*
X233367Y113257D01*
X233396Y113145D01*
X233422Y113033D01*
X233444Y112920D01*
X233461Y112806D01*
X233475Y112692D01*
X233485Y112577D01*
X233491Y112462D01*
X233493Y112347D01*
X229881Y108735D02*
X220849Y115960D01*
X225365Y123463D02*
X225045Y123467D01*
X224726Y123478D01*
X224406Y123497D01*
X224088Y123524D01*
X223770Y123558D01*
X223453Y123600D01*
X223137Y123650D01*
X222822Y123707D01*
X222509Y123771D01*
X222197Y123843D01*
X221887Y123922D01*
X221580Y124009D01*
X221274Y124103D01*
X220971Y124204D01*
X220670Y124313D01*
X220372Y124428D01*
X220076Y124551D01*
X219784Y124681D01*
X219495Y124818D01*
X219494Y124819D02*
X219386Y124858D01*
X219279Y124901D01*
X219174Y124947D01*
X219071Y124997D01*
X218969Y125051D01*
X218869Y125108D01*
X218771Y125169D01*
X218675Y125233D01*
X218582Y125300D01*
X218491Y125370D01*
X218402Y125444D01*
X218316Y125520D01*
X218233Y125600D01*
X218152Y125682D01*
X218074Y125767D01*
X218000Y125854D01*
X217928Y125945D01*
X217859Y126037D01*
X217794Y126132D01*
X217732Y126229D01*
X217673Y126328D01*
X217618Y126429D01*
X217567Y126532D01*
X217519Y126637D01*
X217474Y126743D01*
X217433Y126850D01*
X217396Y126959D01*
X217363Y127070D01*
X217334Y127181D01*
X217308Y127293D01*
X217286Y127406D01*
X217269Y127520D01*
X217255Y127634D01*
X217245Y127749D01*
X217239Y127864D01*
X217237Y127979D01*
X217239Y128094D01*
X217245Y128209D01*
X217255Y128324D01*
X217269Y128438D01*
X217286Y128552D01*
X217308Y128665D01*
X217334Y128777D01*
X217363Y128889D01*
X217396Y128999D01*
X217433Y129108D01*
X217474Y129216D01*
X217519Y129322D01*
X217567Y129427D01*
X217618Y129529D01*
X217674Y129631D01*
X217732Y129730D01*
X217794Y129827D01*
X217860Y129922D01*
X217928Y130014D01*
X218000Y130104D01*
X218074Y130192D01*
X218152Y130277D01*
X218233Y130359D01*
X218316Y130438D01*
X218402Y130515D01*
X218491Y130588D01*
X218582Y130659D01*
X218676Y130726D01*
X218771Y130790D01*
X218869Y130851D01*
X218969Y130908D01*
X219071Y130961D01*
X219175Y131012D01*
X219280Y131058D01*
X219387Y131101D01*
X219495Y131140D01*
X219495Y131139D02*
X219784Y131276D01*
X220076Y131406D01*
X220372Y131529D01*
X220670Y131644D01*
X220971Y131753D01*
X221274Y131854D01*
X221580Y131948D01*
X221887Y132035D01*
X222197Y132114D01*
X222509Y132186D01*
X222822Y132250D01*
X223137Y132307D01*
X223453Y132357D01*
X223770Y132399D01*
X224088Y132433D01*
X224406Y132460D01*
X224726Y132479D01*
X225045Y132490D01*
X225365Y132494D01*
X225365Y123463D02*
X225685Y123467D01*
X226004Y123478D01*
X226324Y123497D01*
X226642Y123524D01*
X226960Y123558D01*
X227277Y123600D01*
X227593Y123650D01*
X227908Y123707D01*
X228221Y123771D01*
X228533Y123843D01*
X228843Y123922D01*
X229150Y124009D01*
X229456Y124103D01*
X229759Y124204D01*
X230060Y124313D01*
X230358Y124428D01*
X230654Y124551D01*
X230946Y124681D01*
X231235Y124818D01*
X231236Y124818D02*
X231344Y124857D01*
X231451Y124900D01*
X231556Y124946D01*
X231660Y124997D01*
X231762Y125050D01*
X231862Y125107D01*
X231960Y125168D01*
X232055Y125232D01*
X232149Y125299D01*
X232240Y125370D01*
X232329Y125443D01*
X232415Y125520D01*
X232498Y125599D01*
X232579Y125681D01*
X232657Y125766D01*
X232731Y125854D01*
X232803Y125944D01*
X232872Y126037D01*
X232937Y126131D01*
X232999Y126228D01*
X233057Y126328D01*
X233113Y126429D01*
X233164Y126531D01*
X233212Y126636D01*
X233257Y126742D01*
X233298Y126850D01*
X233335Y126959D01*
X233368Y127069D01*
X233397Y127181D01*
X233423Y127293D01*
X233445Y127406D01*
X233462Y127520D01*
X233476Y127634D01*
X233486Y127749D01*
X233492Y127864D01*
X233494Y127979D01*
X231235Y131139D02*
X230946Y131276D01*
X230654Y131406D01*
X230358Y131529D01*
X230060Y131644D01*
X229759Y131753D01*
X229456Y131854D01*
X229150Y131948D01*
X228843Y132035D01*
X228533Y132114D01*
X228221Y132186D01*
X227908Y132250D01*
X227593Y132307D01*
X227277Y132357D01*
X226960Y132399D01*
X226642Y132433D01*
X226324Y132460D01*
X226004Y132479D01*
X225685Y132490D01*
X225365Y132494D01*
X231235Y131140D02*
X231343Y131101D01*
X231450Y131058D01*
X231555Y131012D01*
X231659Y130961D01*
X231761Y130908D01*
X231861Y130851D01*
X231959Y130790D01*
X232054Y130726D01*
X232148Y130659D01*
X232239Y130588D01*
X232328Y130515D01*
X232414Y130438D01*
X232497Y130359D01*
X232578Y130277D01*
X232656Y130192D01*
X232730Y130104D01*
X232802Y130014D01*
X232871Y129921D01*
X232936Y129827D01*
X232998Y129730D01*
X233056Y129630D01*
X233112Y129529D01*
X233163Y129426D01*
X233211Y129322D01*
X233256Y129216D01*
X233297Y129108D01*
X233334Y128999D01*
X233367Y128889D01*
X233396Y128777D01*
X233422Y128665D01*
X233444Y128552D01*
X233461Y128438D01*
X233475Y128324D01*
X233485Y128209D01*
X233491Y128094D01*
X233493Y127979D01*
X229881Y124366D02*
X220849Y131591D01*
D13*
X319500Y-80000D02*
X80000Y-80000D01*
X80000Y150000D02*
X319500Y150000D01*
X300000Y149350D02*
X300000Y-79350D01*
X296808Y-54000D01*
X303192Y-54000D01*
X300000Y-79350D01*
X298700Y-54000D01*
X301300Y-54000D02*
X300000Y-79350D01*
X297400Y-54000D01*
X302600Y-54000D02*
X300000Y-79350D01*
X296808Y124000D02*
X300000Y149350D01*
X296808Y124000D02*
X303192Y124000D01*
X300000Y149350D01*
X298700Y124000D01*
X301300Y124000D02*
X300000Y149350D01*
X297400Y124000D01*
X302600Y124000D02*
X300000Y149350D01*
D14*
X281301Y12883D02*
X281176Y12881D01*
X281051Y12875D01*
X280926Y12866D01*
X280802Y12852D01*
X280678Y12835D01*
X280554Y12814D01*
X280432Y12789D01*
X280310Y12760D01*
X280189Y12728D01*
X280069Y12692D01*
X279950Y12652D01*
X279833Y12609D01*
X279717Y12562D01*
X279602Y12511D01*
X279490Y12457D01*
X279378Y12399D01*
X279269Y12339D01*
X279162Y12274D01*
X279056Y12207D01*
X278953Y12136D01*
X278852Y12062D01*
X278753Y11985D01*
X278657Y11905D01*
X278563Y11822D01*
X278472Y11737D01*
X278383Y11648D01*
X278298Y11557D01*
X278215Y11463D01*
X278135Y11367D01*
X278058Y11268D01*
X277984Y11167D01*
X277913Y11064D01*
X277846Y10958D01*
X277781Y10851D01*
X277721Y10742D01*
X277663Y10630D01*
X277609Y10518D01*
X277558Y10403D01*
X277511Y10287D01*
X277468Y10170D01*
X277428Y10051D01*
X277392Y9931D01*
X277360Y9810D01*
X277331Y9688D01*
X277306Y9566D01*
X277285Y9442D01*
X277268Y9318D01*
X277254Y9194D01*
X277245Y9069D01*
X277239Y8944D01*
X277237Y8819D01*
X277239Y8676D01*
X277245Y8534D01*
X277255Y8391D01*
X277268Y8249D01*
X277286Y8108D01*
X277307Y7966D01*
X277332Y7826D01*
X277361Y7686D01*
X277394Y7547D01*
X277431Y7409D01*
X277471Y7272D01*
X277515Y7137D01*
X277563Y7002D01*
X277615Y6869D01*
X277670Y6737D01*
X277729Y6607D01*
X277791Y6479D01*
X277857Y6352D01*
X277926Y6227D01*
X277998Y6104D01*
X278074Y5983D01*
X278153Y5865D01*
X278236Y5748D01*
X278321Y5634D01*
X278410Y5522D01*
X278501Y5413D01*
X278596Y5306D01*
X278693Y5201D01*
X278794Y5100D01*
X278897Y5001D01*
X279002Y4905D01*
X279111Y4812D01*
X279222Y4722D01*
X279335Y4635D01*
X279450Y4551D01*
X279568Y4471D01*
X279688Y4393D01*
X279810Y4319D01*
X279934Y4249D01*
X280060Y4181D01*
X280188Y4118D01*
X280317Y4057D01*
X280448Y4000D01*
X280580Y3947D01*
X280714Y3898D01*
X280849Y3852D01*
X284462Y11528D02*
X284370Y11622D01*
X284276Y11712D01*
X284179Y11800D01*
X284079Y11885D01*
X283977Y11967D01*
X283872Y12045D01*
X283765Y12121D01*
X283656Y12193D01*
X283545Y12262D01*
X283431Y12328D01*
X283316Y12390D01*
X283199Y12449D01*
X283080Y12504D01*
X282960Y12555D01*
X282838Y12603D01*
X282715Y12648D01*
X282591Y12688D01*
X282465Y12725D01*
X282338Y12758D01*
X282211Y12787D01*
X282082Y12813D01*
X281953Y12834D01*
X281823Y12852D01*
X281693Y12865D01*
X281563Y12875D01*
X281432Y12881D01*
X281301Y12883D01*
X284462Y11528D02*
X293493Y3852D01*
X293493Y12883D01*
X293493Y19483D02*
X293493Y23999D01*
X293491Y24132D01*
X293485Y24264D01*
X293475Y24396D01*
X293462Y24528D01*
X293444Y24660D01*
X293423Y24790D01*
X293398Y24921D01*
X293369Y25050D01*
X293336Y25178D01*
X293300Y25306D01*
X293260Y25432D01*
X293216Y25557D01*
X293168Y25681D01*
X293117Y25803D01*
X293062Y25924D01*
X293004Y26043D01*
X292942Y26161D01*
X292877Y26276D01*
X292808Y26390D01*
X292737Y26501D01*
X292661Y26610D01*
X292583Y26717D01*
X292502Y26822D01*
X292417Y26924D01*
X292330Y27024D01*
X292240Y27121D01*
X292147Y27216D01*
X292051Y27307D01*
X291953Y27396D01*
X291852Y27482D01*
X291748Y27565D01*
X291642Y27645D01*
X291534Y27721D01*
X291424Y27795D01*
X291311Y27865D01*
X291197Y27932D01*
X291080Y27995D01*
X290962Y28055D01*
X290842Y28112D01*
X290720Y28165D01*
X290597Y28214D01*
X290473Y28260D01*
X290347Y28302D01*
X290220Y28340D01*
X290092Y28375D01*
X289963Y28406D01*
X289834Y28433D01*
X289703Y28456D01*
X289572Y28476D01*
X289440Y28491D01*
X289308Y28503D01*
X289176Y28511D01*
X289043Y28515D01*
X288911Y28515D01*
X288778Y28511D01*
X288646Y28503D01*
X288514Y28491D01*
X288382Y28476D01*
X288251Y28456D01*
X288120Y28433D01*
X287991Y28406D01*
X287862Y28375D01*
X287734Y28340D01*
X287607Y28302D01*
X287481Y28260D01*
X287357Y28214D01*
X287234Y28165D01*
X287112Y28112D01*
X286992Y28055D01*
X286874Y27995D01*
X286757Y27932D01*
X286643Y27865D01*
X286530Y27795D01*
X286420Y27721D01*
X286312Y27645D01*
X286206Y27565D01*
X286102Y27482D01*
X286001Y27396D01*
X285903Y27307D01*
X285807Y27216D01*
X285714Y27121D01*
X285624Y27024D01*
X285537Y26924D01*
X285452Y26822D01*
X285371Y26717D01*
X285293Y26610D01*
X285217Y26501D01*
X285146Y26390D01*
X285077Y26276D01*
X285012Y26161D01*
X284950Y26043D01*
X284892Y25924D01*
X284837Y25803D01*
X284786Y25681D01*
X284738Y25557D01*
X284694Y25432D01*
X284654Y25306D01*
X284618Y25178D01*
X284585Y25050D01*
X284556Y24921D01*
X284531Y24790D01*
X284510Y24660D01*
X284492Y24528D01*
X284479Y24396D01*
X284469Y24264D01*
X284463Y24132D01*
X284461Y23999D01*
X277237Y24902D02*
X277237Y19483D01*
X277237Y24902D02*
X277239Y25021D01*
X277245Y25141D01*
X277255Y25260D01*
X277269Y25378D01*
X277286Y25497D01*
X277308Y25614D01*
X277333Y25731D01*
X277363Y25846D01*
X277396Y25961D01*
X277433Y26075D01*
X277473Y26187D01*
X277518Y26298D01*
X277566Y26407D01*
X277617Y26515D01*
X277672Y26621D01*
X277731Y26725D01*
X277793Y26827D01*
X277858Y26927D01*
X277927Y27025D01*
X277999Y27121D01*
X278074Y27214D01*
X278151Y27304D01*
X278232Y27392D01*
X278316Y27477D01*
X278403Y27559D01*
X278492Y27639D01*
X278584Y27715D01*
X278678Y27789D01*
X278775Y27859D01*
X278873Y27926D01*
X278974Y27990D01*
X279078Y28050D01*
X279183Y28107D01*
X279290Y28160D01*
X279398Y28210D01*
X279508Y28256D01*
X279620Y28298D01*
X279733Y28337D01*
X279847Y28372D01*
X279962Y28403D01*
X280079Y28431D01*
X280196Y28454D01*
X280313Y28474D01*
X280432Y28490D01*
X280551Y28502D01*
X280670Y28510D01*
X280789Y28514D01*
X280909Y28514D01*
X281028Y28510D01*
X281147Y28502D01*
X281266Y28490D01*
X281385Y28474D01*
X281502Y28454D01*
X281619Y28431D01*
X281736Y28403D01*
X281851Y28372D01*
X281965Y28337D01*
X282078Y28298D01*
X282190Y28256D01*
X282300Y28210D01*
X282408Y28160D01*
X282515Y28107D01*
X282620Y28050D01*
X282724Y27990D01*
X282825Y27926D01*
X282923Y27859D01*
X283020Y27789D01*
X283114Y27715D01*
X283206Y27639D01*
X283295Y27559D01*
X283382Y27477D01*
X283466Y27392D01*
X283547Y27304D01*
X283624Y27214D01*
X283699Y27121D01*
X283771Y27025D01*
X283840Y26927D01*
X283905Y26827D01*
X283967Y26725D01*
X284026Y26621D01*
X284081Y26515D01*
X284132Y26407D01*
X284180Y26298D01*
X284225Y26187D01*
X284265Y26075D01*
X284302Y25961D01*
X284335Y25846D01*
X284365Y25731D01*
X284390Y25614D01*
X284412Y25497D01*
X284429Y25378D01*
X284443Y25260D01*
X284453Y25141D01*
X284459Y25021D01*
X284461Y24902D01*
X284462Y24902D02*
X284462Y21289D01*
X292590Y34489D02*
X293493Y34489D01*
X292590Y34489D02*
X292590Y35392D01*
X293493Y35392D01*
X293493Y34489D01*
X285365Y41367D02*
X285045Y41371D01*
X284726Y41382D01*
X284406Y41401D01*
X284088Y41428D01*
X283770Y41462D01*
X283453Y41504D01*
X283137Y41554D01*
X282822Y41611D01*
X282509Y41675D01*
X282197Y41747D01*
X281887Y41826D01*
X281580Y41913D01*
X281274Y42007D01*
X280971Y42108D01*
X280670Y42217D01*
X280372Y42332D01*
X280076Y42455D01*
X279784Y42585D01*
X279495Y42722D01*
X279494Y42722D02*
X279386Y42761D01*
X279279Y42804D01*
X279174Y42850D01*
X279071Y42900D01*
X278969Y42954D01*
X278869Y43011D01*
X278771Y43072D01*
X278675Y43136D01*
X278582Y43203D01*
X278491Y43273D01*
X278402Y43347D01*
X278316Y43423D01*
X278233Y43503D01*
X278152Y43585D01*
X278074Y43670D01*
X278000Y43757D01*
X277928Y43848D01*
X277859Y43940D01*
X277794Y44035D01*
X277732Y44132D01*
X277673Y44231D01*
X277618Y44332D01*
X277567Y44435D01*
X277519Y44540D01*
X277474Y44646D01*
X277433Y44753D01*
X277396Y44862D01*
X277363Y44973D01*
X277334Y45084D01*
X277308Y45196D01*
X277286Y45309D01*
X277269Y45423D01*
X277255Y45537D01*
X277245Y45652D01*
X277239Y45767D01*
X277237Y45882D01*
X277239Y45997D01*
X277245Y46112D01*
X277255Y46227D01*
X277269Y46341D01*
X277286Y46455D01*
X277308Y46568D01*
X277334Y46680D01*
X277363Y46792D01*
X277396Y46902D01*
X277433Y47011D01*
X277474Y47119D01*
X277519Y47225D01*
X277567Y47330D01*
X277618Y47432D01*
X277674Y47534D01*
X277732Y47633D01*
X277794Y47730D01*
X277860Y47825D01*
X277928Y47917D01*
X278000Y48007D01*
X278074Y48095D01*
X278152Y48180D01*
X278233Y48262D01*
X278316Y48341D01*
X278402Y48418D01*
X278491Y48491D01*
X278582Y48562D01*
X278676Y48629D01*
X278771Y48693D01*
X278869Y48754D01*
X278969Y48811D01*
X279071Y48864D01*
X279175Y48915D01*
X279280Y48961D01*
X279387Y49004D01*
X279495Y49043D01*
X279784Y49180D01*
X280076Y49310D01*
X280372Y49433D01*
X280670Y49548D01*
X280971Y49657D01*
X281274Y49758D01*
X281580Y49852D01*
X281887Y49939D01*
X282197Y50018D01*
X282509Y50090D01*
X282822Y50154D01*
X283137Y50211D01*
X283453Y50261D01*
X283770Y50303D01*
X284088Y50337D01*
X284406Y50364D01*
X284726Y50383D01*
X285045Y50394D01*
X285365Y50398D01*
X285365Y41367D02*
X285685Y41371D01*
X286004Y41382D01*
X286324Y41401D01*
X286642Y41428D01*
X286960Y41462D01*
X287277Y41504D01*
X287593Y41554D01*
X287908Y41611D01*
X288221Y41675D01*
X288533Y41747D01*
X288843Y41826D01*
X289150Y41913D01*
X289456Y42007D01*
X289759Y42108D01*
X290060Y42217D01*
X290358Y42332D01*
X290654Y42455D01*
X290946Y42585D01*
X291235Y42722D01*
X291236Y42721D02*
X291344Y42760D01*
X291451Y42803D01*
X291556Y42849D01*
X291660Y42900D01*
X291762Y42953D01*
X291862Y43010D01*
X291960Y43071D01*
X292055Y43135D01*
X292149Y43202D01*
X292240Y43273D01*
X292329Y43346D01*
X292415Y43423D01*
X292498Y43502D01*
X292579Y43584D01*
X292657Y43669D01*
X292731Y43757D01*
X292803Y43847D01*
X292872Y43940D01*
X292937Y44034D01*
X292999Y44131D01*
X293057Y44231D01*
X293113Y44332D01*
X293164Y44434D01*
X293212Y44539D01*
X293257Y44645D01*
X293298Y44753D01*
X293335Y44862D01*
X293368Y44972D01*
X293397Y45084D01*
X293423Y45196D01*
X293445Y45309D01*
X293462Y45423D01*
X293476Y45537D01*
X293486Y45652D01*
X293492Y45767D01*
X293494Y45882D01*
X291235Y49043D02*
X290946Y49180D01*
X290654Y49310D01*
X290358Y49433D01*
X290060Y49548D01*
X289759Y49657D01*
X289456Y49758D01*
X289150Y49852D01*
X288843Y49939D01*
X288533Y50018D01*
X288221Y50090D01*
X287908Y50154D01*
X287593Y50211D01*
X287277Y50261D01*
X286960Y50303D01*
X286642Y50337D01*
X286324Y50364D01*
X286004Y50383D01*
X285685Y50394D01*
X285365Y50398D01*
X291235Y49043D02*
X291343Y49004D01*
X291450Y48961D01*
X291555Y48915D01*
X291659Y48864D01*
X291761Y48811D01*
X291861Y48754D01*
X291959Y48693D01*
X292054Y48629D01*
X292148Y48562D01*
X292239Y48491D01*
X292328Y48418D01*
X292414Y48341D01*
X292497Y48262D01*
X292578Y48180D01*
X292656Y48095D01*
X292730Y48007D01*
X292802Y47917D01*
X292871Y47824D01*
X292936Y47730D01*
X292998Y47633D01*
X293056Y47533D01*
X293112Y47432D01*
X293163Y47329D01*
X293211Y47225D01*
X293256Y47119D01*
X293297Y47011D01*
X293334Y46902D01*
X293367Y46792D01*
X293396Y46680D01*
X293422Y46568D01*
X293444Y46455D01*
X293461Y46341D01*
X293475Y46227D01*
X293485Y46112D01*
X293491Y45997D01*
X293493Y45882D01*
X289881Y42270D02*
X280849Y49495D01*
X285365Y56998D02*
X285045Y57002D01*
X284726Y57013D01*
X284406Y57032D01*
X284088Y57059D01*
X283770Y57093D01*
X283453Y57135D01*
X283137Y57185D01*
X282822Y57242D01*
X282509Y57306D01*
X282197Y57378D01*
X281887Y57457D01*
X281580Y57544D01*
X281274Y57638D01*
X280971Y57739D01*
X280670Y57848D01*
X280372Y57963D01*
X280076Y58086D01*
X279784Y58216D01*
X279495Y58353D01*
X279494Y58354D02*
X279386Y58393D01*
X279279Y58436D01*
X279174Y58482D01*
X279071Y58532D01*
X278969Y58586D01*
X278869Y58643D01*
X278771Y58704D01*
X278675Y58768D01*
X278582Y58835D01*
X278491Y58905D01*
X278402Y58979D01*
X278316Y59055D01*
X278233Y59135D01*
X278152Y59217D01*
X278074Y59302D01*
X278000Y59389D01*
X277928Y59480D01*
X277859Y59572D01*
X277794Y59667D01*
X277732Y59764D01*
X277673Y59863D01*
X277618Y59964D01*
X277567Y60067D01*
X277519Y60172D01*
X277474Y60278D01*
X277433Y60385D01*
X277396Y60494D01*
X277363Y60605D01*
X277334Y60716D01*
X277308Y60828D01*
X277286Y60941D01*
X277269Y61055D01*
X277255Y61169D01*
X277245Y61284D01*
X277239Y61399D01*
X277237Y61514D01*
X277239Y61629D01*
X277245Y61744D01*
X277255Y61859D01*
X277269Y61973D01*
X277286Y62087D01*
X277308Y62200D01*
X277334Y62312D01*
X277363Y62424D01*
X277396Y62534D01*
X277433Y62643D01*
X277474Y62751D01*
X277519Y62857D01*
X277567Y62962D01*
X277618Y63064D01*
X277674Y63166D01*
X277732Y63265D01*
X277794Y63362D01*
X277860Y63457D01*
X277928Y63549D01*
X278000Y63639D01*
X278074Y63727D01*
X278152Y63812D01*
X278233Y63894D01*
X278316Y63973D01*
X278402Y64050D01*
X278491Y64123D01*
X278582Y64194D01*
X278676Y64261D01*
X278771Y64325D01*
X278869Y64386D01*
X278969Y64443D01*
X279071Y64496D01*
X279175Y64547D01*
X279280Y64593D01*
X279387Y64636D01*
X279495Y64675D01*
X279495Y64674D02*
X279784Y64811D01*
X280076Y64941D01*
X280372Y65064D01*
X280670Y65179D01*
X280971Y65288D01*
X281274Y65389D01*
X281580Y65483D01*
X281887Y65570D01*
X282197Y65649D01*
X282509Y65721D01*
X282822Y65785D01*
X283137Y65842D01*
X283453Y65892D01*
X283770Y65934D01*
X284088Y65968D01*
X284406Y65995D01*
X284726Y66014D01*
X285045Y66025D01*
X285365Y66029D01*
X285365Y56998D02*
X285685Y57002D01*
X286004Y57013D01*
X286324Y57032D01*
X286642Y57059D01*
X286960Y57093D01*
X287277Y57135D01*
X287593Y57185D01*
X287908Y57242D01*
X288221Y57306D01*
X288533Y57378D01*
X288843Y57457D01*
X289150Y57544D01*
X289456Y57638D01*
X289759Y57739D01*
X290060Y57848D01*
X290358Y57963D01*
X290654Y58086D01*
X290946Y58216D01*
X291235Y58353D01*
X291236Y58353D02*
X291344Y58392D01*
X291451Y58435D01*
X291556Y58481D01*
X291660Y58532D01*
X291762Y58585D01*
X291862Y58642D01*
X291960Y58703D01*
X292055Y58767D01*
X292149Y58834D01*
X292240Y58905D01*
X292329Y58978D01*
X292415Y59055D01*
X292498Y59134D01*
X292579Y59216D01*
X292657Y59301D01*
X292731Y59389D01*
X292803Y59479D01*
X292872Y59572D01*
X292937Y59666D01*
X292999Y59763D01*
X293057Y59863D01*
X293113Y59964D01*
X293164Y60066D01*
X293212Y60171D01*
X293257Y60277D01*
X293298Y60385D01*
X293335Y60494D01*
X293368Y60604D01*
X293397Y60716D01*
X293423Y60828D01*
X293445Y60941D01*
X293462Y61055D01*
X293476Y61169D01*
X293486Y61284D01*
X293492Y61399D01*
X293494Y61514D01*
X291235Y64674D02*
X290946Y64811D01*
X290654Y64941D01*
X290358Y65064D01*
X290060Y65179D01*
X289759Y65288D01*
X289456Y65389D01*
X289150Y65483D01*
X288843Y65570D01*
X288533Y65649D01*
X288221Y65721D01*
X287908Y65785D01*
X287593Y65842D01*
X287277Y65892D01*
X286960Y65934D01*
X286642Y65968D01*
X286324Y65995D01*
X286004Y66014D01*
X285685Y66025D01*
X285365Y66029D01*
X291235Y64675D02*
X291343Y64636D01*
X291450Y64593D01*
X291555Y64547D01*
X291659Y64496D01*
X291761Y64443D01*
X291861Y64386D01*
X291959Y64325D01*
X292054Y64261D01*
X292148Y64194D01*
X292239Y64123D01*
X292328Y64050D01*
X292414Y63973D01*
X292497Y63894D01*
X292578Y63812D01*
X292656Y63727D01*
X292730Y63639D01*
X292802Y63549D01*
X292871Y63456D01*
X292936Y63362D01*
X292998Y63265D01*
X293056Y63165D01*
X293112Y63064D01*
X293163Y62961D01*
X293211Y62857D01*
X293256Y62751D01*
X293297Y62643D01*
X293334Y62534D01*
X293367Y62424D01*
X293396Y62312D01*
X293422Y62200D01*
X293444Y62087D01*
X293461Y61973D01*
X293475Y61859D01*
X293485Y61744D01*
X293491Y61629D01*
X293493Y61514D01*
X289881Y57901D02*
X280849Y65126D01*
M02*
